<svg width="18" height="18" viewBox="0 0 18 18" fill="none" xmlns="http://www.w3.org/2000/svg">
<g clip-path="url(#clip0_302_472)">
<path d="M7.3479 8.07677C7.3479 8.07677 8.96813 7.95805 8.96813 6.0827C8.96813 4.20721 7.64257 3.29194 5.96348 3.29194H0.438232V13.7724H5.96348C5.96348 13.7724 9.33644 13.8776 9.33644 10.6791C9.33644 10.6791 9.4835 8.07677 7.3479 8.07677V8.07677ZM5.56578 5.15473H5.96348C5.96348 5.15473 6.71452 5.15473 6.71452 6.24517C6.71452 7.33549 6.27283 7.49357 5.77183 7.49357H2.87273V5.15473H5.56578V5.15473ZM5.80735 11.9097H2.87273V9.10892H5.96348C5.96348 9.10892 7.08288 9.09443 7.08288 10.5482C7.08288 11.7741 6.2468 11.9004 5.80735 11.9097V11.9097ZM13.8349 5.95848C9.75154 5.95848 9.75515 9.9854 9.75515 9.9854C9.75515 9.9854 9.47499 13.9916 13.8349 13.9916C13.8349 13.9916 17.4681 14.1965 17.4681 11.2047H15.5996C15.5996 11.2047 15.6619 12.3314 13.8972 12.3314C13.8972 12.3314 12.0284 12.455 12.0284 10.508H17.5304C17.5304 10.508 18.1324 5.95848 13.8349 5.95848ZM12.0079 9.10892C12.0079 9.10892 12.236 7.49354 13.8764 7.49354C15.5164 7.49354 15.4959 9.10892 15.4959 9.10892H12.0079ZM15.9311 5.19997H11.5504V3.90937H15.9311V5.19997Z" fill="white"/>
</g>
<defs>
<clipPath id="clip0_302_472">
<rect width="17.1242" height="17.1242" fill="white" transform="translate(0.437988 0.437908)"/>
</clipPath>
</defs>
</svg>
