<svg width="18" height="18" viewBox="0 0 18 18" fill="none" xmlns="http://www.w3.org/2000/svg">
                                <g clip-path="url(#clip0_302_373)">
                                <path d="M0.437988 9C0.437988 7.4474 0.82044 6.01469 1.58531 4.70183C2.35019 3.38897 3.38907 2.35011 4.70191 1.58523C6.01477 0.820343 7.4475 0.437908 9.00008 0.437908C10.5527 0.437908 11.9854 0.820343 13.2983 1.58523C14.6111 2.35011 15.65 3.38897 16.4149 4.70183C17.1797 6.01469 17.5622 7.4474 17.5622 9C17.5622 10.5526 17.1797 11.9853 16.4149 13.2982C15.65 14.611 14.6111 15.6499 13.2983 16.4148C11.9854 17.1797 10.5527 17.5621 9.00008 17.5621C7.4475 17.5621 6.01477 17.1797 4.70191 16.4148C3.38907 15.6499 2.35019 14.611 1.58531 13.2982C0.82044 11.9853 0.437988 10.5526 0.437988 9ZM1.8593 9C1.8593 10.7809 2.45864 12.3506 3.65733 13.7092C4.20531 12.636 5.07294 11.6143 6.26021 10.6439C7.4475 9.67355 8.60622 9.06279 9.73642 8.81163C9.56518 8.41208 9.39966 8.05247 9.23982 7.73281C7.27626 8.3607 5.15286 8.67464 2.86962 8.67464C2.42439 8.67464 2.09333 8.66894 1.87642 8.65752C1.87642 8.70319 1.87358 8.76026 1.86786 8.82876C1.86216 8.89725 1.8593 8.95433 1.8593 9ZM2.08191 7.23621C2.33307 7.25904 2.7041 7.27046 3.19498 7.27046C5.10149 7.27046 6.91093 7.01359 8.62335 6.49987C7.75573 4.95869 6.80248 3.67438 5.76361 2.64693C4.86175 3.10358 4.0883 3.73717 3.44328 4.54771C2.79828 5.35825 2.34449 6.25443 2.08191 7.23621ZM4.63341 14.6339C5.92345 15.6385 7.379 16.1408 9.00008 16.1408C9.84488 16.1408 10.684 15.981 11.5173 15.6613C11.289 13.7092 10.8438 11.8198 10.1816 9.9932C9.13137 10.2215 8.07253 10.798 7.00511 11.7227C5.93771 12.6475 5.14714 13.6178 4.63341 14.6339ZM7.25341 2.09895C8.25804 3.13783 9.18845 4.43355 10.0447 5.98614C11.5973 5.33542 12.7674 4.50776 13.5551 3.50314C12.2308 2.40719 10.7125 1.85922 9.00008 1.85922C8.41786 1.85922 7.83564 1.93913 7.25341 2.09895ZM10.6611 7.20196C10.8324 7.56727 11.0265 8.02962 11.2433 8.58902C12.0882 8.5091 13.0071 8.46915 14.0003 8.46915C14.7082 8.46915 15.4102 8.48627 16.1066 8.52052C16.0153 6.96792 15.4559 5.58659 14.4284 4.37647C13.6864 5.48384 12.4306 6.42567 10.6611 7.20196ZM11.6715 9.78771C12.2537 11.4773 12.6475 13.2125 12.853 14.9935C13.7549 14.4112 14.4912 13.6635 15.062 12.7502C15.6329 11.8369 15.9753 10.8494 16.0895 9.78771C15.2561 9.73064 14.4969 9.70209 13.812 9.70209C13.1841 9.70209 12.4706 9.73064 11.6715 9.78771Z" fill="white"/>
                                </g>
                                <defs>
                                <clipPath id="clip0_302_373">
                                <rect width="17.1242" height="17.1242" fill="white" transform="translate(0.437988 0.437908)"/>
                                </clipPath>
                                </defs>
                        </svg>
