<svg width="18" height="18" viewBox="0 0 18 18" fill="none" xmlns="http://www.w3.org/2000/svg">
<g clip-path="url(#clip0_302_538)">
<path d="M6.14651 9C6.14651 7.42383 7.42391 6.14574 9.00008 6.14574C10.5763 6.14574 11.8543 7.42383 11.8543 9C11.8543 10.5762 10.5763 11.8543 9.00008 11.8543C7.42391 11.8543 6.14651 10.5762 6.14651 9ZM4.60354 9C4.60354 11.4282 6.57185 13.3965 9.00008 13.3965C11.4283 13.3965 13.3966 11.4282 13.3966 9C13.3966 6.57177 11.4283 4.60346 9.00008 4.60346C6.57185 4.60346 4.60354 6.57177 4.60354 9ZM12.5432 4.42917C12.5432 4.99629 13.0031 5.4569 13.5709 5.4569C14.138 5.4569 14.5986 4.99629 14.5986 4.42917C14.5986 3.86205 14.1387 3.40213 13.5709 3.40213C13.0031 3.40213 12.5432 3.86205 12.5432 4.42917ZM5.54066 15.9693C4.70589 15.9313 4.2522 15.7923 3.95066 15.6747C3.55091 15.5191 3.26597 15.3337 2.96581 15.0343C2.66635 14.7348 2.4803 14.4499 2.32538 14.0501C2.20781 13.7486 2.0688 13.2949 2.03076 12.4601C1.98926 11.5576 1.98096 11.2865 1.98096 9C1.98096 6.71355 1.98995 6.44313 2.03076 5.53989C2.0688 4.70512 2.2085 4.25212 2.32538 3.94989C2.48099 3.55014 2.66635 3.2652 2.96581 2.96504C3.26528 2.66557 3.55022 2.47953 3.95066 2.32461C4.2522 2.20704 4.70589 2.06803 5.54066 2.02999C6.44321 1.98849 6.71432 1.98019 9.00008 1.98019C11.2865 1.98019 11.557 1.98918 12.4602 2.02999C13.295 2.06803 13.748 2.20773 14.0502 2.32461C14.4499 2.47953 14.7349 2.66557 15.035 2.96504C15.3345 3.2645 15.5199 3.55014 15.6755 3.94989C15.793 4.25143 15.9321 4.70512 15.9701 5.53989C16.0116 6.44313 16.0199 6.71355 16.0199 9C16.0199 11.2858 16.0116 11.5569 15.9701 12.4601C15.9321 13.2949 15.7924 13.7486 15.6755 14.0501C15.5199 14.4499 15.3345 14.7348 15.035 15.0343C14.7356 15.3337 14.4499 15.5191 14.0502 15.6747C13.7487 15.7923 13.295 15.9313 12.4602 15.9693C11.5576 16.0108 11.2865 16.0191 9.00008 16.0191C6.71432 16.0191 6.44321 16.0108 5.54066 15.9693V15.9693ZM5.47012 0.489779C4.55858 0.531275 3.93614 0.675821 3.39184 0.887453C2.82887 1.106 2.35166 1.39924 1.87515 1.87507C1.39932 2.35089 1.10608 2.8281 0.887533 3.39176C0.675901 3.93606 0.531355 4.5585 0.489859 5.47004C0.447671 6.38296 0.437988 6.67482 0.437988 9C0.437988 11.3252 0.447671 11.617 0.489859 12.53C0.531355 13.4415 0.675901 14.0639 0.887533 14.6082C1.10608 15.1712 1.39863 15.6491 1.87515 16.1249C2.35097 16.6008 2.82818 16.8933 3.39184 17.1125C3.93683 17.3242 4.55858 17.4687 5.47012 17.5102C6.38373 17.5517 6.6749 17.5621 9.00008 17.5621C11.326 17.5621 11.6171 17.5524 12.53 17.5102C13.4416 17.4687 14.064 17.3242 14.6083 17.1125C15.1713 16.8933 15.6485 16.6008 16.125 16.1249C16.6008 15.6491 16.8934 15.1712 17.1126 14.6082C17.3243 14.0639 17.4695 13.4415 17.5103 12.53C17.5518 11.6163 17.5615 11.3252 17.5615 9C17.5615 6.67482 17.5518 6.38296 17.5103 5.47004C17.4688 4.5585 17.3243 3.93606 17.1126 3.39176C16.8934 2.82879 16.6008 2.35158 16.125 1.87507C15.6492 1.39924 15.1713 1.106 14.609 0.887453C14.064 0.675821 13.4416 0.530583 12.5307 0.489779C11.6178 0.448282 11.326 0.437908 9.00077 0.437908C6.6749 0.437908 6.38373 0.447591 5.47012 0.489779" fill="white"/>
</g>
<defs>
<clipPath id="clip0_302_538">
<rect width="17.1242" height="17.1242" fill="white" transform="translate(0.437988 0.437908)"/>
</clipPath>
</defs>
</svg>
