<svg width="18" height="18" viewBox="0 0 18 18" fill="none" xmlns="http://www.w3.org/2000/svg">
<g clip-path="url(#clip0_302_208)">
<path d="M0.437988 2.42684C0.437988 1.85026 0.630834 1.37459 1.01651 0.999828C1.40218 0.625051 1.90358 0.437672 2.52066 0.437672C3.12673 0.437672 3.61709 0.622163 3.99175 0.99118C4.37743 1.37172 4.57027 1.86756 4.57027 2.47873C4.57027 3.03224 4.38295 3.49349 4.00828 3.8625C3.62261 4.24304 3.11571 4.43331 2.4876 4.43331H2.47107C1.865 4.43331 1.37464 4.24304 0.999979 3.8625C0.625313 3.48197 0.437988 3.00341 0.437988 2.42684ZM0.652867 17.5618V6.00735H4.32234V17.5618H0.652867ZM6.35542 17.5618H10.0249V11.11C10.0249 10.7064 10.069 10.395 10.1571 10.176C10.3114 9.78388 10.5456 9.45234 10.8596 9.18137C11.1737 8.91037 11.5676 8.77489 12.0414 8.77489C13.2756 8.77489 13.8927 9.6455 13.8927 11.3868V17.5618H17.5622V10.937C17.5622 9.23037 17.1765 7.93598 16.4051 7.05382C15.6338 6.17167 14.6145 5.73059 13.3472 5.73059C11.9257 5.73059 10.8183 6.37059 10.0249 7.65057V7.68517H10.0084L10.0249 7.65057V6.00735H6.35542C6.37745 6.37635 6.38848 7.52372 6.38848 9.44947C6.38848 11.3752 6.37745 14.0793 6.35542 17.5618Z" fill="white"/>
</g>
<defs>
<clipPath id="clip0_302_208">
<rect width="17.1242" height="17.1242" fill="white" transform="translate(0.437988 0.437908)"/>
</clipPath>
</defs>
</svg>
